<svg width="63" height="55" viewBox="0 0 63 55" fill="none" xmlns="http://www.w3.org/2000/svg">
<path d="M55.2953 35.5691C54.6102 34.8033 53.9638 34.079 53.4134 33.3024C51.1447 30.0979 50.5627 25.396 51.9669 21.6018C52.3345 20.6098 52.8236 19.6546 53.3423 18.6426C54.4438 16.4944 55.5832 14.2723 55.4684 11.652C55.4 10.0879 54.8278 7.74767 52.4822 5.46891C50.3639 3.40773 47.1825 2.6302 43.0221 3.16242C38.3996 3.75053 28.2018 7.34249 11.8385 24.7839C4.68263 32.4107 2.62992 36.0185 3.0526 40.2268C3.46117 44.2798 6.20406 48.26 9.57461 49.6903C11.5679 50.5358 13.0194 50.1709 15.4228 49.562C16.5977 49.2651 18.0617 48.895 20.0015 48.5574C21.7006 48.2592 26.2129 47.4692 31.137 47.8107C33.2256 47.9545 34.313 48.2263 36.1137 48.6748C37.8715 49.1126 40.2777 49.7106 44.8318 50.4834C46.9344 50.8396 48.4593 51 49.6914 51C51.2897 51 52.3932 50.7313 53.6189 50.2749C56.4738 49.2149 59.3194 46.0246 58.9709 42.2009C58.7147 39.3943 56.9769 37.4497 55.2953 35.5705V35.5691ZM53.0634 48.4335C51.1323 49.1507 49.5975 49.3275 45.0969 48.5643C40.6014 47.8024 38.2293 47.2109 36.4977 46.7801C34.6759 46.3268 33.4729 46.0277 31.2464 45.8726C30.3601 45.8115 29.4894 45.785 28.6442 45.785C24.6081 45.785 21.1773 46.384 19.7301 46.6375C17.731 46.9868 16.2353 47.3647 15.0342 47.6685C12.7425 48.248 11.6972 48.5102 10.2008 47.8774C7.4509 46.7107 5.12601 43.3281 4.79282 40.011C4.44714 36.5755 6.45445 33.2154 13.0507 26.1847C29.6389 8.50182 39.6755 5.54284 43.2203 5.09239C46.8647 4.62737 49.5955 5.24581 51.3341 6.9369C53.2117 8.76022 53.6668 10.5588 53.7192 11.747C53.8094 13.803 52.8434 15.6882 51.8197 17.6836C51.2974 18.703 50.7564 19.7583 50.347 20.8647C48.7108 25.2858 49.3896 30.7659 52.0364 34.5035C52.6489 35.3686 53.363 36.1655 54.0524 36.9375C55.5871 38.6538 57.0358 40.2751 57.2292 42.3965C57.4866 45.2174 55.2746 47.6136 53.0626 48.4349L53.0634 48.4335Z" fill="#C87E5D" stroke="#C87E5D" stroke-width="6"/>
</svg>
