<svg width="42" height="73" viewBox="0 0 42 73" fill="none" xmlns="http://www.w3.org/2000/svg">
<path d="M35.4813 12.9653H5.95285C5.1697 12.9653 4.41863 13.3153 3.86487 13.9383C3.3111 14.5613 3 15.4062 3 16.2873V66.1166C3 66.9976 3.3111 67.8425 3.86487 68.4655C4.41863 69.0885 5.1697 69.4385 5.95285 69.4385H35.4813C36.2644 69.4385 37.0155 69.0885 37.5693 68.4655C38.123 67.8425 38.4341 66.9976 38.4341 66.1166V16.2873C38.4341 15.4062 38.123 14.5613 37.5693 13.9383C37.0155 13.3153 36.2644 12.9653 35.4813 12.9653Z" stroke="#C87E5D" stroke-width="6" stroke-linejoin="round"/>
<path d="M3 26.2539H38.4341" stroke="#C87E5D" stroke-width="6" stroke-linecap="round"/>
<path d="M3 21.2705V31.2364M38.4341 21.2705V31.2364" stroke="#C87E5D" stroke-width="6" stroke-linecap="round" stroke-linejoin="round"/>
<path d="M32.5272 3H8.90442V12.9659H32.5272V3Z" stroke="#C87E5D" stroke-width="6" stroke-linejoin="round"/>
</svg>
