<svg width="66" height="73" viewBox="0 0 66 73" fill="none" xmlns="http://www.w3.org/2000/svg">
<path d="M40.9618 47.3071L43.7768 54.1171C43.7768 54.1171 56.4314 57.1401 56.4314 64.3303C56.4314 69.4387 50.8013 69.4387 50.8013 69.4387H35.8074L28.4253 64.8249" stroke="#C87E5D" stroke-width="6" stroke-linecap="round" stroke-linejoin="round"/>
<path d="M24.0963 47.3071L21.2846 54.1171C21.2846 54.1171 8.62671 57.1401 8.62671 64.3303C8.62671 69.4387 14.2568 69.4387 14.2568 69.4387H21.0483L28.4305 64.8249L37.453 58.3655" stroke="#C87E5D" stroke-width="6" stroke-linecap="round" stroke-linejoin="round"/>
<path d="M3 50.7106C3 50.7106 10.0311 49.009 14.2503 47.3074C18.4663 23.4706 31.1177 25.1722 32.5285 25.1722C33.936 25.1722 46.5906 23.4706 50.8066 47.3074C55.0259 49.0053 62.0569 50.7106 62.0569 50.7106M32.5285 17.7642C34.2688 17.7642 35.9378 16.9865 37.1684 15.6021C38.399 14.2176 39.0903 12.34 39.0903 10.3821C39.0903 8.42426 38.399 6.54659 37.1684 5.16217C35.9378 3.77776 34.2688 3 32.5285 3C30.7881 3 29.1191 3.77776 27.8885 5.16217C26.6579 6.54659 25.9666 8.42426 25.9666 10.3821C25.9666 12.34 26.6579 14.2176 27.8885 15.6021C29.1191 16.9865 30.7881 17.7642 32.5285 17.7642Z" stroke="#C87E5D" stroke-width="6" stroke-linecap="round" stroke-linejoin="round"/>
</svg>
